<?xml version="1.0" encoding="UTF-8" standalone="no"?>
<!-- Created with Inkscape (http://www.inkscape.org/) -->

<svg
   version="1.1"
   id="svg2"
   width="8000"
   height="5333.3335"
   viewBox="0 0 8000 5333.3335"
   sodipodi:docname="book-graphics.eps"
   xmlns:inkscape="http://www.inkscape.org/namespaces/inkscape"
   xmlns:sodipodi="http://sodipodi.sourceforge.net/DTD/sodipodi-0.dtd"
   xmlns="http://www.w3.org/2000/svg"
   xmlns:svg="http://www.w3.org/2000/svg">
  <defs
     id="defs6" />
  <sodipodi:namedview
     id="namedview4"
     pagecolor="#ffffff"
     bordercolor="#000000"
     borderopacity="0.25"
     inkscape:showpageshadow="2"
     inkscape:pageopacity="0.0"
     inkscape:pagecheckerboard="0"
     inkscape:deskcolor="#d1d1d1" />
  <g
     id="g8"
     inkscape:groupmode="layer"
     inkscape:label="ink_ext_XXXXXX"
     transform="matrix(1.3333333,0,0,-1.3333333,0,5333.3333)">
    <g
       id="g10"
       transform="scale(0.1)">
      <path
         d="M 60000,0 H 0 V 40000 H 60000 V 0"
         style="fill:#ffffff;fill-opacity:1;fill-rule:nonzero;stroke:none"
         id="path12" />
      <path
         d="m 2184.04,25558.8 h 3485.44 c 0,0 -265.77,6022.4 174.33,6045.5 440.1,23.2 6230.89,-1853 6601.49,-1945.7 370.6,-92.6 2455.3,-1158.1 4748.4,-1992 2293.2,-833.9 3242.8,-1644.6 4679,-2316.3 1436.1,-671.7 2131,-1204.5 2918.5,-2107.9 787.6,-903.3 1679.3,-1714 1586.7,-2142.5 -92.7,-428.6 -625.4,-648.6 -1088.7,-428.6 -463.3,220.1 -787.5,1019.2 -1795.1,1494.1 -1007.6,474.8 -1795.2,972.8 -2119.5,1111.8 -324.2,139 -559.7,258.6 -899.4,258.6 -339.8,0 -494.2,-7.7 -602.3,38.7 -108.1,46.3 -1042.3,718 -988.3,772.1 54.1,54 756.7,-532.8 1258.5,-610 501.9,-77.2 671.8,0 1745,-471 1073.2,-471 1598.3,-918.8 1644.6,-965.1 46.3,-46.3 1652.3,-2555.7 1729.5,-3011.2 77.2,-455.6 -254.8,-949.7 -772.1,-803 -517.3,146.7 -1335.8,1829.9 -1860.8,2347.2 -525,517.3 -532.7,733.5 -625.4,996 -92.6,262.5 -1019.2,702.6 -1683.2,1173.6 -664,471 -2277.7,1829.9 -2339.4,2076.9 -61.8,247.1 -525.1,1335.8 -540.5,1119.6 -15.5,-216.2 185.3,-1351.2 841.6,-1791.3 656.3,-440.1 3443.6,-2416.7 3543.9,-2702.3 100.4,-285.7 -216.2,-779.9 -664,-756.7 -447.8,23.2 -1984.3,471 -2370.3,803 -386.1,332 193,-702.6 849.3,-1150.4 656.3,-447.9 1289.4,-1567.4 1366.6,-1737.3 77.2,-169.8 741.2,-1412.9 1196.8,-1374.3 455.5,38.6 625.4,185.3 633.1,401.5 7.7,216.2 -270.3,764.4 -486.4,1173.6 -216.2,409.2 -733.5,1598.2 -888,1644.6 -154.4,46.3 -1518.8,193 -2053.8,586.7 -534.9,393.8 -2015.1,1768.2 -2679.1,2038.4 -664.1,270.2 -1196.8,-30.9 -2077,355.2 -880.2,386 -2378.1,1876.2 -2586.5,1914.8 -208.5,38.6 -1567.4,-370.6 -1544.3,-494.2 23.2,-123.5 -4771.54,528.9 -4371.98,737.4 399.56,208.5 2588.47,-538.5 3335.48,-382.2 747,156.4 2171.5,1580.9 2171.5,1389.8 0,-191.1 -1302.9,-1580.9 -799.1,-2136.8 503.8,-555.9 2293.2,-1754.6 3335.5,-2206.3 1042.3,-451.7 2154.2,-1233.4 2658,-1754.6 503.8,-521.2 1511.4,-2021 1766.1,-2391.6 254.8,-370.6 868.7,-312.7 949.7,11.6 81.1,324.3 -555.9,1517.2 -775.9,1957.3 -220.1,440.1 -816.5,1239.2 -781.8,1320.3 34.8,81 544.3,46.3 660.2,-139 115.8,-185.3 210.7,-1138.9 1534.5,-2322.1 1323.8,-1183.2 990.2,-1824.1 2275.8,-3318.1 1285.5,-1494 5055.3,-1401.4 5472.3,-1401.4 416.9,0 2374.2,428.5 2524.7,220.1 150.6,-208.5 -138.9,-857.1 451.7,-915 590.7,-57.9 5333.3,26.1 5388.3,78.2 55,52.1 -11.6,196.9 -95.5,208.5 -84,11.6 -4945.3,365.8 -5018.7,350.3 -73.3,-15.4 193,-266.4 -38.6,-401.5 -231.6,-135.1 -308.8,19.3 -474.8,65.7 -166,46.3 -2391.8,194.8 -2439.9,304.9 -48,110.2 169.9,1274 308.9,1467 138.9,193.1 1567.3,625.4 1876.2,617.7 308.8,-7.7 687.1,-741.2 710.3,-1003.7 23.2,-262.5 403.4,2389.6 1584.8,3831.5 1181.3,1441.9 1449.6,1426.5 1642.6,1395.6 193,-30.9 10963.9,-2215.9 10971.6,-2246.8 7.7,-30.9 -108.1,-239.4 -131.3,-254.8 -23.1,-15.4 -10890.5,2015.2 -11029.5,2015.2 -138.9,0 -1378.2,-1389.8 -1331.8,-1401.4 46.3,-11.6 1366.6,752.8 1679.3,845.5 312.7,92.6 10846.1,-1696.7 10886.6,-1743 40.6,-46.4 -422.7,-382.2 -486.4,-399.6 -63.7,-17.4 -9902.2,1887.8 -10747.7,1563.5 -845.4,-324.3 -2084.6,-1737.2 -2293.1,-2200.5 -208.5,-463.3 -602.3,-1285.5 -405.4,-1158.2 196.9,127.4 1980.5,2478.5 3138.6,2640.6 1158.2,162.2 10990.9,-1227.6 11006.4,-1258.5 15.4,-30.9 -146.7,-139 -239.4,-169.8 -92.7,-30.9 -10685.9,1185.1 -10685.9,1150.4 0,-34.8 104.2,-521.2 46.3,-555.9 -57.9,-34.8 -3636.6,-2814.3 -3474.4,-2860.7 162.1,-46.3 3636.6,2640.6 3706.1,2640.6 69.4,0 11396.2,-822.3 11477.3,-903.3 81,-81.1 -3740.9,-2791.2 -3822,-2814.4 -81,-23.1 -914.9,509.6 -1250.8,660.2 -335.8,150.6 -1378.2,961.3 -1777.7,845.4 -399.6,-115.8 -451.7,-254.8 -330.1,-480.6 121.6,-225.8 374.5,-191.1 891.8,-754.7 517.3,-563.7 841.6,-957.4 772.1,-972.9 -69.5,-15.4 -2980.3,1343.5 -3420.4,1521.1 -440.1,177.6 -1026.9,154.4 -1026.9,-231.7 0,-386 1034.6,-795.2 1474.7,-1158.1 440.1,-362.9 1057.8,-841.6 1528.8,-1034.6 470.9,-193.1 1799,-756.7 1644.5,-586.8 -154.4,169.8 -1714,756.6 -2177.3,1026.9 -463.3,270.2 -2463,1351.1 -2856.8,1343.4 -393.7,-7.7 -926.5,-30.9 -857,-231.6 69.5,-200.7 2517,-1436.1 3119.3,-1706.4 602.2,-270.2 1899.4,-517.3 2115.5,-656.2 216.2,-139 602.3,-424.7 1011.5,-332 409.2,92.6 3489.9,486.4 4184.8,432.3 694.9,-54 4555.4,-3165.6 5003.2,-2849 447.8,316.5 1258.5,3582.5 1181.3,3675.2 -77.2,92.6 -5790.7,2138.7 -6037.8,2185 -247.1,46.4 -1235.4,563.7 -1204.5,540.5 30.9,-23.2 540.5,-447.8 494.2,-517.3 -46.4,-69.5 -2077,-679.4 -2030.7,-586.8 46.4,92.7 1706.4,610 1837.6,610 131.3,0 1227.7,-162.2 1837.6,-656.3 610,-494.2 -849.3,-2324.1 -602.2,-2393.5 247.1,-69.5 4250.1,-2532.5 4447.3,-2625.2 197.2,-92.7 887.9,3389.5 996,3412.7 108.1,23.2 6209.7,0 6209.7,0"
         style="fill:none;stroke:#1a1817;stroke-width:90.722;stroke-linecap:butt;stroke-linejoin:miter;stroke-miterlimit:10;stroke-dasharray:none;stroke-opacity:1"
         id="path14" />
    </g>
  </g>
</svg>
