<?xml version="1.0" encoding="UTF-8" standalone="no"?>
<!-- Created with Inkscape (http://www.inkscape.org/) -->

<svg
   version="1.1"
   id="svg1"
   width="8000"
   height="4000"
   viewBox="0 0 8000 4000"
   sodipodi:docname="book-graphics-2.eps"
   xmlns:inkscape="http://www.inkscape.org/namespaces/inkscape"
   xmlns:sodipodi="http://sodipodi.sourceforge.net/DTD/sodipodi-0.dtd"
   xmlns="http://www.w3.org/2000/svg"
   xmlns:svg="http://www.w3.org/2000/svg">
  <defs
     id="defs1" />
  <sodipodi:namedview
     id="namedview1"
     pagecolor="#ffffff"
     bordercolor="#000000"
     borderopacity="0.25"
     inkscape:showpageshadow="2"
     inkscape:pageopacity="0.0"
     inkscape:pagecheckerboard="0"
     inkscape:deskcolor="#d1d1d1">
    <inkscape:page
       x="0"
       y="0"
       inkscape:label="1"
       id="page1"
       width="8000"
       height="4000"
       margin="0"
       bleed="0" />
  </sodipodi:namedview>
  <g
     id="g1"
     inkscape:groupmode="layer"
     inkscape:label="1">
    <g
       id="group-R5">
      <path
         id="path2"
         d="M 60000,0 H 0 V 30000 H 60000 V 0"
         style="fill:#ffffff;fill-opacity:1;fill-rule:nonzero;stroke:none"
         transform="matrix(0.13333333,0,0,-0.13333333,0,4000)" />
      <path
         id="path3"
         d="m 24457.9,26777.3 c 89.5,-9.2 178.5,-19.4 266.7,-30.6 283.1,366.9 374.3,539 403.6,613.8 -113.2,-57.1 -355.8,-254.5 -670.3,-583.2 z m 20463.4,-8653.9 c -259.4,-75.1 -440.1,-230.7 -537.4,-463.1 -45.6,-109 -71.7,-230.6 -82,-359.7 312.2,387.2 550.3,690.4 619.4,822.8 z M 20060.5,14036.2 c 121.4,-78.7 246.2,-161.3 374.5,-247.9 357.5,-241.3 686.8,-473.9 951.4,-660.9 216.4,-152.8 425.5,-300.6 571.6,-396.2 -17.5,21.6 -37.4,45.7 -60,72.8 -304.6,363 -933.4,827.9 -1837.5,1232.2 z m -2586,-840.5 c 551.7,-217.4 1161.1,-467.7 1857.3,-753.6 l 518.4,-212.8 c 1677.4,-687.7 3243.5,-1687.9 4020.2,-2186.8 -562.5,546.8 -1652.3,1465 -3746.1,2302.5 -888.4,355.4 -1803.6,641.3 -2649.8,850.7 z m 7315.1,13391.5 c -92.6,-118 -202,-252.5 -331.1,-405.7 -993.8,-1180 -3584.2,-4425.7 -5475.6,-6795.7 -1139,-1427.1 -1961.9,-2458.3 -2071.9,-2582.4 -79.9,-90 -112.5,-164.3 -97,-220.8 34.6,-126.9 304.5,-229.6 564,-313.4 1772.2,-572.3 3840.5,-1452.1 5744.6,-3638.2 684.4,-785.7 1204.3,-1549 1622.1,-2162.2 281.3,-413 526.6,-773.1 728.5,-992.1 1759.9,2431 7077.7,9972.7 7402.4,10433.1 -47,638.5 -412.3,1274.9 -764.4,1814.8 -889,1362.9 -2233.9,2666.2 -3689.8,3575.5 -1082.4,676.1 -2280.9,1104.2 -3631.8,1287.1 z M 13702.7,13106.7 c 6246,-1632.1 9858,-3948.7 10521.7,-4398.6 406.3,-275.5 577.1,-126 730,66 68.3,85.7 217.6,287.6 429.1,578.9 -208.1,218.5 -449.4,572.7 -762.1,1031.8 -415.6,610 -932.7,1369.1 -1611.3,2148.1 -1880.1,2158.7 -3925.3,3028.3 -5678,3594.3 -371.3,119.9 -611.6,231.3 -662.1,416.1 -29.9,109.6 12.3,227.1 129.3,359 107.5,121.3 972.2,1204.8 2067,2576.6 1891.9,2370.6 4483,5617.2 5478.1,6798.7 103.7,123.1 193.8,233.2 272.3,331.6 -95.2,11.4 -190.8,21.5 -287.6,30.4 -152.1,-166.3 -317.7,-359.8 -491.1,-579.7 -1111.7,-1409.2 -7621.1,-9300.7 -8488.9,-10352.6 1264.3,-60.8 2275.5,-215 4006,-1233.5 1342.8,-467.5 2262.7,-1103.8 2657.2,-1574 218.1,-260 255,-334.2 197.2,-397 -74.9,-81.5 -172,-18 -909.2,502.7 -264,186.6 -592.6,418.7 -948.8,659.1 -386.3,260.7 -739.7,484.7 -1067,677.4 -836.7,288.5 -1841.1,510.8 -2988.1,583.8 -941.4,59.9 -1490.6,-170.9 -1814.3,-769 660.6,-136.2 1314.8,-335.6 2063,-607.5 1158.3,-223.3 2493.5,-609.3 3634.6,-1065.8 2500,-999.9 3588.2,-2116.6 4052.9,-2593.4 33.4,-34.2 63.5,-65.2 90.7,-92.5 41.3,-41.4 97.8,-98.2 50.4,-156.9 -52.7,-65 -52.4,-65.2 -548,253.2 -759.9,488.2 -2341,1503.9 -4032.1,2197.4 l -518.5,212.7 c -1112.9,457.1 -2003.7,823 -2789.3,1108.1 -1361.5,256.9 -2392.2,268.8 -2576.7,-2.2 l -56,-82.8 c -45.6,-67.7 -99.1,-146.9 -150.4,-220.4 z M 41055.4,9850.1 c -303.5,-278.7 -976.1,-1055 -1664.8,-2130.2 216.4,276 432.6,549.1 637.1,807.4 396.9,501.4 803,1014.5 1027.7,1322.8 z m -2851,-3951.4 c 4.7,-1.9 9.7,-3.9 14.4,-5.7 11.6,25.3 23.3,50.6 35,75.8 -16.7,-23.6 -33.1,-46.9 -49.4,-70.1 z m 153.2,-60.6 c 412.3,-162.8 832.3,-326.4 1263.2,-488.8 1773.4,2752.1 5572.4,8674.8 5761.6,8988.7 75.1,124.6 27.1,193.2 -109.2,331.2 -264.2,267.5 -465.9,527.5 -634.5,818.4 -197.3,340.3 -415,883.8 -475.4,1404.6 -1327.1,-1637.6 -3790.6,-4679.6 -6632.9,-9448.3 -351.3,-589.4 -550.1,-876 -670.5,-1009.8 205.8,-81.8 411.9,-164 619.1,-246.6 192.9,-77 387.3,-154.6 583,-232.3 173.7,249 376.8,525.5 595,814.2 891.2,1646 1939.2,2871.7 2320.8,3211.8 233.3,207.7 310.9,258.7 375.8,197.4 87,-82.1 49.7,-153.7 -1208.9,-1743.9 -438.6,-554.1 -931.1,-1176.2 -1363.5,-1748.3 -146.8,-271.8 -289.2,-555.4 -423.6,-848.3 z m -61.5,-136.1 c -103.6,-232.4 -201.7,-470.4 -292.7,-713.1 -137.9,-367.6 -188.4,-554.7 166.9,-791.7 83.1,-55.4 154.1,-110.8 216.8,-159.8 104.4,-81.7 194.4,-152.6 249.8,-144.1 27.1,4 57.6,30.1 90.7,77.4 40.4,57.7 347.8,532.6 810.4,1250.2 -423.6,160 -836.1,320.7 -1241.9,481.1 z M 27395.5,8641.8 c -1079.2,0 -1819.8,-187.2 -1855.6,-378.6 -3.9,-20.9 -12.6,-210.5 875.5,-449.7 2917.8,-786.3 7575.6,-2427.6 10832.3,-4043.2 527,-261.4 799.1,-376.1 939.3,-425.5 -191.6,164.9 -608.5,454.9 -904,619.7 -1584.2,883.4 -2617.7,1321.8 -3804.3,1803.1 -1824.9,740.3 -3608.5,1302.4 -4674.1,1638.2 -1094.8,345.1 -1094,348.8 -1073.5,444.7 18.5,86.4 118.1,74.9 298.8,53.9 1103.7,-128.3 3976.9,-1005.5 5712.1,-1674.5 1063.7,-410 1929.9,-811.9 2562.3,-1105.3 308.5,-143 552,-256.1 725.7,-326.6 232,-94.4 313.2,-26.2 621.2,519.8 82.4,146 192.8,319.1 323.9,511.4 -185,73.5 -368.9,146.9 -551.4,219.7 -234.2,93.4 -467.5,186.5 -700.1,278.7 -28.8,-7 -48,4.1 -66.5,14.9 -8.7,5 -15.8,11.7 -21.6,20 -2490.5,985.3 -4938.2,1873.3 -8136.3,2218.4 -393.5,42.4 -765.4,60.9 -1103.7,60.9 z M 55517.2,2473.3 c -7547.8,0 -12109.3,1297.5 -15836.4,2694 -474,-735.5 -790,-1223.6 -831,-1282.2 -58.3,-83.3 -120.8,-128.9 -190.9,-139.4 -118.4,-17.1 -226.6,67 -363.7,174.1 -60.6,47.4 -129.2,101 -207.7,153.3 -436.9,291.3 -372.3,572.5 -223.8,968.3 91.3,243.4 189.7,482.2 293.6,715.4 -13.6,5.4 -26.6,10.6 -40.2,16 -136.8,-199.7 -251.6,-378.7 -336,-528.2 -290.5,-515 -434.7,-736.2 -807.3,-584.9 -177,71.9 -422,185.6 -732.3,329.6 -630.5,292.5 -1494.1,693.2 -2553.2,1101.5 -1564,602.9 -4053.3,1375.4 -5321.2,1610.2 144.2,-46.3 309.2,-98.3 482.3,-152.9 1067.8,-336.5 2855,-899.8 4685.4,-1642.3 1150.4,-466.6 2232,-924.9 3820.9,-1811 183.4,-102.3 454.7,-278.9 675,-439.4 420.5,-306.3 427.9,-380 393.9,-444.6 -42.6,-81.4 -80.1,-151.2 -1243.2,425.8 -3248.1,1611.3 -7894.1,3248.4 -10804.8,4032.8 -704.5,189.8 -1026.2,393.1 -983.4,621.3 85.3,454.6 1683.2,593.8 3122.1,438.5 3189.1,-344.1 5632,-1223.3 8109.4,-2202 52.9,279.3 327.1,786.4 469.7,1037.2 4520.6,8124.5 6687.3,10293.8 7399.3,11006.7 93.3,93.3 175.5,175.7 203,216.2 -4.9,2.5 -11.2,5.3 -19.2,8.7 -2935,1287.1 -5714.6,1540.3 -7532.1,1525 -2151.9,-17.4 -3605.2,-426.1 -3827,-714.4 -42.7,-62.2 -4527.2,-6573.9 -7213.9,-10321.3 -87.5,-122 -189.2,-181.1 -300.2,-181.9 -100.2,1.2 -202,51.5 -312,145.6 -207.3,-285.2 -353.6,-482.9 -421.2,-567.9 -186,-233.5 -442,-427.6 -930.4,-96.6 -663.9,450.1 -4293.7,2777.7 -10580.4,4405.2 -24,6.1 -43.3,23.8 -51.6,47.1 -8.3,23.3 -4.5,49.2 10.1,69.1 66.3,90.6 146.3,209.3 210.6,304.6 l 56.3,83.4 c 188.9,277.5 915.4,318.4 1880.6,197.2 -451.4,141.9 -878.6,254 -1309.6,338.7 -22.7,4.5 -42,19.2 -52.3,39.8 -10.4,20.6 -10.6,44.9 -0.6,65.6 347.6,725.7 946.6,1006.4 2002,939.5 867.6,-55.3 1655.3,-195.4 2353,-385.5 -1401,726 -2315.1,826.8 -3465.5,875.8 -28.3,1.2 -53.5,18.3 -65,44.2 -11.5,25.8 -7.4,56 10.6,77.8 73.8,89.5 7397.3,8963.7 8581.9,10465.3 134.9,171 278.8,342.2 422.4,502.9 -1601.6,121.6 -3411.2,-77.2 -5485.1,-592.1 -2608.3,-647.4 -5035.3,-968.9 -7210.6,-957.9 -2736.31,14.9 -5091.76,560.3 -7000.95,1621.2 -35.99,20 -48.99,65.4 -28.96,101.4 19.96,36 65.39,49 101.45,29 3425.13,-1903.2 8170.16,-2121.6 14103.06,-648.8 2139.4,531 4002.2,728.4 5648.4,587 400.7,431.2 778.7,753.3 928.6,730.5 39.7,-6.2 70.3,-30.9 84.1,-67.8 15.2,-40.6 55.2,-147.6 -388.4,-734.1 1337.2,-191.9 2527,-623.3 3605.6,-1297 1495.4,-933.9 2822.1,-2219.8 3735.8,-3620.5 365.7,-560.9 745.5,-1225.1 789.3,-1899.2 l 0.4,-11.2 c 0.4,-15.9 -4.2,-37.6 -13.4,-50.6 -64.1,-90.9 -5635.9,-7994.4 -7432.1,-10474.6 84.8,-75 160.3,-117.1 225.7,-117.9 0.6,0 1.1,0 1.7,0 60.3,0 117.7,39.2 175.4,119.7 2685.9,3746.2 7169.6,10256.7 7214.6,10322.1 284.1,369.5 1836.4,758.7 3946.3,775.8 1832.7,14.6 4634.1,-239.8 7592.2,-1537.1 32.6,-13.7 102.4,-43.1 115.8,-111.8 16.9,-85.7 -51.1,-153.7 -252.7,-355.7 -708.5,-709.2 -2864.1,-2867.5 -7374.9,-10974.4 -229.2,-402.9 -370.8,-725 -431.9,-904.9 98.7,123.3 281.7,383.9 609.6,933.9 2853.1,4786.8 5324.6,7836.5 6652.5,9474.9 31.4,38.8 62.5,77.1 93,114.8 -5.3,218.7 22.8,427.2 98.5,608 120.3,287.3 345.8,475.3 670.2,558.8 75.4,19.5 128.4,6.2 157.6,-39.3 70.1,-109.1 -43.3,-272.8 -774.6,-1177.2 28.3,-540.8 266.4,-1149.5 468.4,-1497.8 162.1,-279.6 356.5,-530.1 611.6,-788.4 115.3,-116.8 273.2,-276.8 130.7,-513 -188.6,-313 -3963.1,-6197.5 -5746.5,-8965.3 3709.6,-1387.4 8252.8,-2673.2 15753.6,-2673.2 41.3,0 74.6,-33.4 74.6,-74.6 0,-41.2 -33.3,-74.6 -74.6,-74.6"
         style="fill:#000000;fill-opacity:1;fill-rule:nonzero;stroke:none"
         transform="matrix(0.13333333,0,0,-0.13333333,0,4000)" />
    </g>
  </g>
</svg>
