<?xml version="1.0" encoding="UTF-8" standalone="no"?>
<!-- Created with Inkscape (http://www.inkscape.org/) -->

<svg
   version="1.1"
   id="svg1"
   width="5333.3335"
   height="5333.3335"
   viewBox="0 0 5333.3335 5333.3335"
   sodipodi:docname="book-graphics-3.eps"
   xmlns:inkscape="http://www.inkscape.org/namespaces/inkscape"
   xmlns:sodipodi="http://sodipodi.sourceforge.net/DTD/sodipodi-0.dtd"
   xmlns="http://www.w3.org/2000/svg"
   xmlns:svg="http://www.w3.org/2000/svg">
  <defs
     id="defs1" />
  <sodipodi:namedview
     id="namedview1"
     pagecolor="#ffffff"
     bordercolor="#000000"
     borderopacity="0.25"
     inkscape:showpageshadow="2"
     inkscape:pageopacity="0.0"
     inkscape:pagecheckerboard="0"
     inkscape:deskcolor="#d1d1d1">
    <inkscape:page
       x="0"
       y="0"
       inkscape:label="1"
       id="page1"
       width="5333.3335"
       height="5333.3335"
       margin="0"
       bleed="0" />
  </sodipodi:namedview>
  <g
     id="g1"
     inkscape:groupmode="layer"
     inkscape:label="1">
    <g
       id="group-R5">
      <path
         id="path2"
         d="m 33357.1,9862.3 c 11.4,67 19.6,132.4 24.5,197.9 l -6300,-197.9 z m -9581.7,10351.8 v 0 m -2694.6,-9009.4 c -3.3,-1.6 -4.9,-3.3 -6.6,-4.9 M 8537.98,15527.9 c -127.54,-209.3 -194.57,-426.8 -197.83,-642.6 -3.27,-232.2 68.66,-464.3 222.39,-686.7 40.89,-1.7 71.93,3.2 101.34,9.8 v 0 c 11.43,1.7 22.92,3.2 35.99,4.9 -176.6,170 -273.09,367.9 -292.69,583.7 -19.6,225.7 50.69,469.3 210.9,712.9 z m 967.98,-5703.2 h -371.17 c 13.07,-36 27.78,-70.3 40.9,-106.3 h 390.77 c -21.24,36 -40.9,70.3 -60.5,106.3 z m 49.06,81.8 h 9261.08 c -174.9,248.5 -264.8,531.3 -284.4,830.6 -24.6,343.3 40.9,708 171.7,1071 -1548.4,52.3 -3116.5,81.7 -4684.6,111.2 -1519,27.7 -3036.4,55.6 -4534.07,104.6 -271.47,-539.6 -482.37,-1105.3 70.29,-2117.4 z m -449.69,0 h 356.47 c -534.64,1003.9 -336.8,1577.8 -65.4,2120.7 l -98.08,3.2 c -228.93,-320.4 -349.92,-672 -367.89,-1057.9 -16.4,-331.9 42.53,-688.3 174.9,-1066 z m -5032.78,-81.8 c -22.87,0 -40.87,18 -40.87,40.9 0,21.2 18,40.9 40.87,40.9 H 9018.7 c -129.17,377.7 -186.4,735.7 -170.01,1071 19.61,407.1 150.41,781.5 397.31,1118.4 v 0 c 8.16,9.8 19.6,16.3 34.3,16.3 l 155.35,-4.9 c 14.71,26.2 29.41,53.9 42.53,81.7 H 8168.45 c -16.34,0 -31.04,9.8 -37.57,23 -184.83,336.7 -264.92,727.6 -230.57,1070.9 31.1,332 168.43,619.7 418.6,778.3 8.16,3.3 14.7,4.9 22.87,4.9 v 0 h 9488.42 c 22.9,0 40.9,-17.9 40.9,-40.8 0,-8.2 -3.3,-16.4 -8.2,-24.6 -209.3,-320.4 -333.6,-639.3 -359.7,-954.9 -26.1,-309 44.2,-616.4 222.4,-922.2 l 1017,-93.2 c -85,358.2 -78.5,644.2 -6.6,881.3 68.8,232.2 196.3,417 353.2,578.9 l -1278.6,722.7 c -6.5,3.3 -11.4,8.1 -14.7,13.1 v 0 c -122.6,188 -181.5,521.5 -165.2,845.3 11.5,263.3 72,523.2 186.4,691.7 l -9200.6,-170.1 78.47,-18 v 0 c 4.9,-1.6 9.8,-3.2 14.7,-6.5 18.03,-13.1 22.87,-37.6 9.8,-57.2 -173.27,-242 -250.16,-485.7 -230.51,-708 19.61,-222.4 132.44,-426.8 336.81,-593.5 11.44,-8.3 19.6,-21.4 17.97,-36 -1.64,-23 -21.24,-39.3 -44.17,-37.7 -52.27,3.3 -86.63,-3.2 -121,-8.1 v 0 0 c -39.19,-8.2 -80.09,-16.4 -142.23,-9.8 v 0 c -11.44,0 -22.86,6.5 -29.41,16.3 -171.69,242 -251.79,495.4 -248.52,750.5 3.27,224 70.3,446.4 196.2,662.2 l -2070.03,479.1 c -21.24,4.9 -34.37,26.1 -29.41,49.1 0,3.2 3.27,8.1 4.9,13 v 0 c 81.74,124.3 152.04,253.4 197.83,400.7 44.17,143.8 63.77,305.7 40.84,495.4 -1.57,21.2 13.13,42.4 36,44.1 1.64,0 3.27,0 4.9,0 v 0 H 17166.3 c 13.2,0 26.2,-6.5 32.8,-16.4 4.9,-4.9 8.1,-8.1 11.4,-13 98.1,-124.3 158.6,-315.6 147.2,-513.4 -9.9,-176.6 -73.6,-359.8 -212.6,-506.9 99.8,3.2 225.7,11.5 351.6,19.6 142.2,8.2 284.5,16.4 389.1,19.6 L 16079,18827.5 c -11.4,18 -6.5,44.2 13.1,55.6 6.6,4.9 14.7,6.5 21.2,6.5 v 0 h 353.2 c 16.4,0 29.5,-8.1 36,-21.2 l 4584.8,-7613 c 11.5,-16.3 6.6,-39.2 -6.5,-50.7 -55.6,-54 -124.3,-103 -192.9,-152 -150.5,-106.3 -299.3,-211 -225.7,-330.4 107.9,-174.9 263.2,-281.1 443.1,-354.8 183.1,-73.5 392.4,-111.1 603.4,-145.5 183.1,-29.4 333.5,37.6 482.3,104.7 166.8,75.2 330.3,148.7 542.9,104.6 138.9,-29.4 245.2,-173.3 349.8,-313.9 73.7,-101.4 147.2,-201.1 225.7,-245.3 106.3,-63.8 260,-78.5 408.8,-94.8 65.4,-6.5 130.8,-13.1 189.7,-22.9 -52.4,150.4 -81.8,318.9 -111.2,485.6 -62.2,361.3 -125.9,719.5 -423.5,842.1 -291,119.3 -600.1,-42.5 -915.7,-207.7 -266.5,-138.9 -534.6,-281.2 -814.2,-271.4 -44.2,1.6 -86.7,13.1 -129.2,32.7 -76.9,37.6 -150.5,104.6 -201.2,183.1 -52.2,78.5 -85,171.7 -81.7,263.3 0,36 8.2,71.9 21.2,106.3 L 16792,18827.5 c -11.5,19.6 -5,45.8 14.7,57.2 h 3.2 c 366.3,219.1 779.9,371.2 1236.1,457.8 456.3,88.4 954.9,114.5 1494.6,80.2 14.7,0 27.7,-8.2 34.3,-19.7 696.5,-1103.6 1308,-2321.8 1832.9,-3654.3 395.7,-1002.4 742.3,-2071.7 1038.3,-3206.5 -184.8,1041.6 -390.8,2083.1 -624.6,3124.7 -322.1,1427.4 -694.9,2853.2 -1139.7,4280.6 -6.5,21.3 6.5,44.2 27.8,50.7 21.3,6.6 42.5,-4.9 50.7,-24.5 v 0 c 529.8,-1407.8 958.2,-2833.6 1306.4,-4274.1 242,-1007.3 444.8,-2021 614.8,-3041.3 l -658.9,7297.5 c -3.3,21.2 13.1,40.8 34.3,44.1 v 0 l 1672.7,259.9 c 21.3,3.3 42.5,-13 45.8,-34.3 0,-4.9 0,-8.1 0,-11.4 -189.6,-1456.9 -369.5,-2918.7 -501.9,-4396.8 -112.9,-1268.8 -189.8,-2550.7 -207.7,-3857.2 184.7,1335.9 431.6,2635.8 716.2,3911.1 330.2,1479.8 714.5,2926.8 1118.3,4359.2 6.6,21.3 27.9,34.4 50.7,27.8 1.7,0 4.9,-1.6 6.6,-3.2 l 1814.9,-763.6 c 19.6,-8.2 29.5,-31.1 21.3,-52.4 0,-1.6 -1.7,-3.2 -1.7,-4.9 v 0 C 26058,18139.2 25350,16831.1 24733.5,15478.8 24154.7,14210.1 23656.1,12902 23293.1,11528.5 l 4329.7,7027.6 c 11.4,19.6 36,24.5 55.6,13.1 v 0 l 2653.7,-1574.6 c 19.6,-11.5 26.2,-36 14.8,-55.6 -3.3,-4.9 -8.2,-9.8 -13.1,-13.1 -353.2,-242 -694.9,-466 -1038.3,-688.4 -1450.4,-946.7 -2900.7,-1893.4 -5314.1,-4411.5 1048.1,716.2 2160,1370.3 3311.1,1983.4 1270.4,676.9 2590,1306.4 3924.2,1918 21.3,9.8 45.8,0 54,-19.6 9.8,-19.6 1.6,-44.2 -18,-54 -1255.7,-672 -2580.2,-1383.3 -3845.8,-2120.7 -1133.1,-659 -2217.1,-1337.5 -3157.3,-2024.3 1211.6,557.6 2424.8,1079.2 3638.1,1566.5 1330.9,534.6 2661.9,1025.1 3994.5,1469.9 l 1.6,1.7 v 0 0 c 21.3,6.5 45.8,-4.9 52.4,-26.2 6.5,-19.6 -5,-42.5 -24.6,-50.7 v 0 c -1322.7,-488.9 -2617.8,-1005.6 -3876.8,-1556.6 -1126.6,-492.2 -2227,-1012.1 -3296.3,-1561.6 l 7462.5,2214 v 0 0 l 1.7,1.6 c 21.2,6.6 44.1,-6.5 50.6,-27.8 6.6,-21.2 -4.8,-44.1 -26.1,-50.7 v 0 l -7364.4,-2429.7 c 1097.1,258.3 2222,513.4 3348.6,770.1 1447.1,330.3 2894.1,659 4266,987.6 h 1.6 v 0 0 c 21.3,6.6 44.1,-8.1 49,-29.4 4.9,-21.3 -8.1,-44.2 -29.4,-49.1 v 0 c -1380,-361.3 -2825.4,-721.1 -4269.2,-1082.4 -1113.5,-276.3 -2227,-554.3 -3306.1,-832.3 L 32734,12176 c 23,3.2 42.6,-11.5 47.5,-32.7 3.2,-22.9 -11.5,-44.2 -34.3,-47.4 v 0 l -7613,-1460.2 7962.8,869.9 c 18.1,3.2 36,-8.2 42.6,-24.5 106.3,-273.1 207.7,-544.5 269.7,-820.9 37.7,-171.7 59,-343.3 57.3,-516.6 l 210.9,6.5 v 0 1.6 h 2249.9 c 22.9,0 40.9,-19.6 40.9,-40.9 0,-22.9 -18,-40.8 -40.9,-40.8 h -2249.9 v 0 l -214.2,-8.2 c -4.9,-81.8 -16.3,-165.1 -34.3,-248.6 -3.3,-19.6 -19.7,-32.6 -39.3,-32.6 v 0 h -8911.2 c -22.9,0 -40.9,17.9 -40.9,40.9 0,22.8 18,40.8 40.9,40.8 h 3.2 l 8903.1,279.6 c 3.3,168.4 -17.9,333.5 -55.6,500.3 -57.2,260 -153.6,520 -255,780 l -8935.8,-977.8 c -22.9,-3.2 -42.5,11.5 -47.4,32.7 -3.3,22.9 11.4,44.1 32.7,47.4 l 4179.3,801.2 -4344.4,-750.5 v 0 c -21.3,-4.9 -40.9,8.2 -45.8,29.4 -6.6,21.3 6.5,44.2 27.7,49.1 1381.7,361.3 2825.5,722.7 4269.3,1082.4 l 469.2,116.1 -449.6,-101.4 c -1447.1,-330.2 -2894.1,-658.9 -4264.3,-987.6 -22.9,-6.5 -45.8,4.9 -52.3,26.2 -6.6,21.3 4.9,44.2 26.1,52.3 l 5693.4,1877.1 -5279.7,-1566.4 v 0 c -18,-4.9 -39.3,3.3 -47.4,19.6 -11.5,21.3 -3.3,45.8 16.3,55.6 1190.4,624.6 2418.3,1210 3680.6,1761 421.9,184.7 847,364.6 1277,541.2 -454.5,-171.7 -907.4,-348.2 -1360.3,-529.7 -1331,-534.7 -2662,-1111.9 -3993,-1730 -16.3,-8.2 -37.5,-3.3 -50.6,11.4 -13.1,18.1 -9.9,44.2 8.1,57.3 1013.8,768.5 2217.2,1528.8 3482.8,2266.3 853.5,495.3 1733.2,981 2603,1451.9 -896,-425.1 -1779,-861.7 -2639,-1319.5 -1267.2,-676.9 -2488.6,-1399.6 -3628.3,-2204.2 v 0 c -16.3,-11.3 -37.6,-9.8 -52.3,3.3 -16.3,16.4 -16.3,40.9 -1.6,57.2 2585,2743.8 4094.3,3728.1 5603.5,4710.8 323.7,210.9 647.4,423.4 984.3,652.4 l -2563.8,1522.2 -4449.1,-7220.5 c -8.3,-16.4 -26.2,-24.5 -45.8,-19.6 -21.3,4.9 -34.3,27.7 -29.5,49 368,1473.2 894.4,2871.3 1512.5,4225.1 611.5,1340.8 1311.3,2637.4 2039,3920.9 l -1733.3,729.3 c -398.9,-1417.6 -778.2,-2848.4 -1103.6,-4310.1 -330.3,-1476.5 -608.3,-2987.3 -799.6,-4552.1 v 0 c -3.3,-19.7 -19.6,-34.4 -40.8,-34.4 -23,0 -40.9,18 -40.9,40.9 -3.3,1535.4 80.1,3034.7 212.5,4516.2 130.9,1463.4 307.4,2907.1 493.8,4346 l -1581.1,-245.2 775,-8582.6 v 0 c 3.3,-22.9 -11.4,-44.2 -34.3,-47.4 -22.9,-1.7 -42.5,13 -45.8,35.9 -202.7,1461.8 -467.6,2913.8 -814.2,4351 -222.4,927.1 -480.8,1847.7 -776.7,2763.3 255,-920.5 484,-1839.5 690,-2760 322.1,-1427.5 590.2,-2856.5 822.4,-4285.6 v 0 c 3.3,-21.3 -9.8,-40.9 -31.1,-45.8 -21.2,-4.9 -44.1,9.8 -49,31.1 -348.3,1561.5 -786.5,3005.3 -1309.7,4334.6 -521.6,1321.2 -1126.6,2529.5 -1816.6,3623.3 -524.9,31.1 -1010.5,6.6 -1455.2,-80.1 -433.3,-83.3 -827.4,-223.9 -1177.3,-428.4 l 4450.7,-7621.1 -1.6,-1.7 c 8.2,-9.8 8.2,-24.5 1.6,-37.5 -13,-29.5 -21.3,-62.2 -21.3,-94.9 -3.2,-73.6 23,-148.8 67.1,-215.8 44.1,-67 104.6,-122.7 170.1,-153.7 31,-14.7 63.7,-24.5 94.8,-24.5 258.3,-9.8 518.3,127.5 775,261.6 331.9,173.3 657.3,344.9 984.4,210.9 340,-139 407.1,-518.3 474.1,-904.2 32.7,-188.1 65.4,-379.4 132.5,-537.9 v 0 c 3.3,-8.2 4.9,-18 1.6,-26.2 -4.9,-21.3 -27.8,-34.3 -49.1,-29.4 -75.1,19.6 -163.5,27.7 -253.4,37.6 -157,16.3 -318.8,32.7 -441.5,103 -93.2,53.9 -171.6,160.2 -250.1,268.1 -94.9,129.2 -193,260 -300.9,282.9 -186.4,39.2 -338.5,-29.4 -492.1,-98.1 -161.9,-71.9 -322.2,-145.5 -529.8,-111.2 -214.2,34.3 -430,73.6 -619.7,150.4 -196.3,78.5 -364.7,196.2 -482.4,387.5 -114.4,184.8 63.8,310.7 246.9,439.9 57.3,39.3 114.5,80.1 160.2,122.6 l -4556.9,7565.6 h -255.1 l 1803.5,-2804.2 c 4.9,-6.5 8.2,-14.7 8.2,-24.5 0,-22.9 -18,-40.9 -40.9,-40.9 -106.3,0 -282.9,-11.4 -457.8,-21.3 -179.9,-11.4 -359.8,-21.2 -464.4,-21.2 v 0 c -13.1,0 -24.5,4.9 -32.7,14.7 -13.1,18 -9.8,44.2 6.5,57.2 8.2,6.6 16.4,13.2 23,19.7 160.2,137.3 232.1,323.7 242,502 9.8,178.1 -40.9,348.2 -127.6,457.7 H 6685.44 c 14.7,-179.8 -6.53,-338.4 -50.7,-482.3 -40.84,-135.7 -103.03,-256.7 -174.96,-372.8 l 2040.62,-470.9 c 8.17,11.5 14.71,22.9 22.87,36 v -1.7 c 8.18,11.5 19.66,18 34.31,18 l 9344.62,173.3 v 0 c 9.8,0 19.6,-3.2 27.8,-11.4 16.3,-14.7 18,-40.9 1.6,-57.2 -135.7,-145.5 -207.6,-423.5 -220.8,-709.7 -13,-304.1 37.7,-614.8 148.8,-789.7 l 1314.7,-744 c 4.8,-1.6 8.1,-3.3 11.4,-8.2 16.4,-14.7 16.4,-40.9 0,-57.2 -166.8,-160.2 -302.5,-345 -372.8,-580.4 -68.6,-235.5 -73.6,-524.9 22.9,-894.4 v 0 c 1.6,-3.3 1.6,-8.2 1.6,-13.1 -3.2,-22.9 -22.8,-39.3 -44.1,-37.6 l -1095.5,101.4 c -13.1,0 -24.5,8.1 -32.7,19.6 -194.6,325.3 -271.5,655.6 -243.6,987.5 26.1,309.1 140.6,619.8 335.1,932.1 H 8353.21 c -220.7,-143.9 -343.34,-405.5 -372.79,-709.7 -31.04,-320.4 42.53,-685.1 212.59,-1003.9 h 1352.21 v 0 c 6.54,0 13.07,-1.7 19.6,-4.9 19.66,-9.8 27.78,-34.3 16.4,-53.9 l -29.46,-57.3 -26.2,-50.7 c 1486.34,-47.4 2990.54,-75.2 4494.84,-104.6 1587.7,-29.4 3177,-58.9 4740.2,-111.2 4.9,0 9.8,0 13.1,-1.7 21.2,-8.1 32.6,-32.6 24.5,-52.2 -137.4,-371.3 -209.3,-744.1 -184.8,-1090.7 21.2,-310.6 119.4,-601.7 313.9,-851.8 6.6,-6.6 9.8,-16.4 9.8,-26.2 0,-22.9 -17.9,-40.9 -40.8,-40.9 H 9599.19 c 24.5,-40.9 47.37,-81.8 73.56,-124.2 4.91,-6.6 6.54,-14.8 6.54,-23 0,-22.8 -17.97,-40.8 -40.9,-40.8 H 9149.5 v 0 c -16.34,0 -32.67,9.8 -37.58,24.5 -22.92,55.6 -44.16,109.6 -63.76,163.5 H 4072.55"
         style="fill:#000000;fill-opacity:1;fill-rule:nonzero;stroke:none"
         transform="matrix(0.13333333,0,0,-0.13333333,0,5333.3333)" />
    </g>
  </g>
</svg>
