<svg width="512" height="512" viewBox="0 0 512 512" fill="none" xmlns="http://www.w3.org/2000/svg">
<rect width="512" height="512" rx="100" fill="#CA3D3D"/>
<path d="M220.167 200.479C220.167 200.479 235.056 214.039 263.289 205.3C265.546 204.602 306.815 186.182 340.879 170.924C362.066 161.434 386 176.934 386 200.15V349.97C386 349.97 386 362.334 373.452 368.977C373.452 368.977 278.789 411.603 263.289 416.77C247.789 421.936 225.83 420.645 213.097 414.555C200.365 408.466 195.567 401.085 195.014 392.965L194.644 209.544C194.644 203.824 194.644 187.586 211.437 182.05C214.207 180.888 275.35 154.889 309.992 140.157C321.1 135.433 333.41 143.591 333.41 155.662V155.662" stroke="white" stroke-width="14" stroke-miterlimit="4.62023" stroke-linecap="round" stroke-linejoin="round"/>
<path d="M151.522 162.282C151.522 162.282 166.412 175.842 194.644 167.103C197.554 166.202 265.28 135.859 298.844 120.796C307.535 116.896 317.356 123.255 317.356 132.781V132.781M194.644 378.572C179.144 383.739 157.185 382.447 144.453 376.358C131.72 370.268 126.923 362.887 126.369 354.768L126 171.347C126 165.627 126 149.388 142.792 143.852C145.562 142.691 206.706 116.691 241.347 101.959C252.456 97.2352 264.765 105.394 264.765 117.465V117.465" stroke="white" stroke-width="14" stroke-miterlimit="4.62023" stroke-linecap="round" stroke-linejoin="round"/>
</svg>
