<svg width="747" height="915" viewBox="0 0 747 915" fill="none" xmlns="http://www.w3.org/2000/svg">
<path d="M276.155 298.938C276.155 298.938 316.5 335.678 393 312C401.037 309.512 591.541 224.138 680.499 184.21C701.679 174.704 725.5 190.254 725.5 213.47V704C725.5 704 725.499 737.5 691.5 755.5C691.5 755.5 435 871 393 885C351 899 291.5 895.5 257 879C222.5 862.5 209.5 842.5 208 820.5L207 323.5C207 308 207 264 252.5 249C260.546 245.627 450.333 164.921 538.602 127.382C559.708 118.406 583 133.948 583 156.884V177.5" stroke="white" stroke-width="42" stroke-miterlimit="4.62023" stroke-linecap="round" stroke-linejoin="round"/>
<path d="M90.155 195.438C90.155 195.438 130.5 232.178 207 208.5C215.037 206.012 405.541 120.638 494.499 80.7103C515.679 71.2039 539.5 86.7541 539.5 109.97V115.5M207 781.5C165 795.5 105.5 792 70.9999 775.5C36.5 759 23.4999 739 22 717L21 220C21 204.5 21 160.5 66.5 145.5C74.5462 142.127 264.333 61.4209 352.602 23.8821C373.708 14.9062 397 30.4485 397 53.3838V74" stroke="white" stroke-width="42" stroke-miterlimit="4.62023" stroke-linecap="round" stroke-linejoin="round"/>
</svg>
